PathFileType	4	(X/Y/Z)	Walk10.trc
DataRate	CameraRate	NumFrames	NumMarkers	Units	OrigDataRate	OrigDataStartFrame	OrigNumFrames
200.000000	200.000000	5	68	mm	200.000000	524	783
Frame#	Times		LToe		LowerBodyModelVer		LBHD		LWRR		LElbow		RMT1		LACR1		RMT5		RToe		LUA1		RTB2		LWRU		RCAL		LCAR		RTB3		RTB4		RFA1		LMT5		RWRU		RMMAL		C7		LASI		RLFC		LTB2		LPSI		LLFC		LMMAL		RElbowM		LTH3		RASI		RPSI		LHJC		MidPelvis		OPelvis		PELOrigin		RHJC		SACR		XPelvis		YPelvis		ZPelvis		LCAL		RElbow		LFHD		RTH3		RCAR		STRN		RBHD		LMT1		RMFC		RKJC		LLMAL		RWRR		RLMAL		RUA1		RFHD		RBack		LMFC		LKJC		LTH4		RTH1		LTH1		LTH2		LTB1		LTB4		LTB3		RTH4		RTB1		RTH2
			X1	Y1	Z1	X2	Y2	Z2	X3	Y3	Z3	X4	Y4	Z4	X5	Y5	Z5	X6	Y6	Z6	X7	Y7	Z7	X8	Y8	Z8	X9	Y9	Z9	X10	Y10	Z10	X11	Y11	Z11	X12	Y12	Z12	X13	Y13	Z13	X14	Y14	Z14	X15	Y15	Z15	X16	Y16	Z16	X17	Y17	Z17	X18	Y18	Z18	X19	Y19	Z19	X20	Y20	Z20	X21	Y21	Z21	X22	Y22	Z22	X23	Y23	Z23	X24	Y24	Z24	X25	Y25	Z25	X26	Y26	Z26	X27	Y27	Z27	X28	Y28	Z28	X29	Y29	Z29	X30	Y30	Z30	X31	Y31	Z31	X32	Y32	Z32	X33	Y33	Z33	X34	Y34	Z34	X35	Y35	Z35	X36	Y36	Z36	X37	Y37	Z37	X38	Y38	Z38	X39	Y39	Z39	X40	Y40	Z40	X41	Y41	Z41	X42	Y42	Z42	X43	Y43	Z43	X44	Y44	Z44	X45	Y45	Z45	X46	Y46	Z46	X47	Y47	Z47	X48	Y48	Z48	X49	Y49	Z49	X50	Y50	Z50	X51	Y51	Z51	X52	Y52	Z52	X53	Y53	Z53	X54	Y54	Z54	X55	Y55	Z55	X56	Y56	Z56	X57	Y57	Z57	X58	Y58	Z58	X59	Y59	Z59	X60	Y60	Z60	X61	Y61	Z61	X62	Y62	Z62	X63	Y63	Z63	X64	Y64	Z64	X65	Y65	Z65	X66	Y66	Z66	X67	Y67	Z67	X68	Y68	Z68

524	2.62	-198.96	36.286	-97.458	9	2014	4	-309.85	1611.8	-110.37	-144.53	826.98	-330.54	-272.07	1078.2	-333.54	-0.7377	66.333	38.65	-250.47	1420.1	-212.74	-44.222	57.335	107.9	42.204	82.973	81.751	-254.51	1216.9	-293.3	-110.11	317.05	96.677	-70.573	832.15	-316.28	-202.49	46.655	10.368	-223.21	945.74	-338.26	-106	227.9	23.552	-94.489	315.48	23.102	-341.54	935.79	236.87	-288.27	23.678	-156.05	-328.87	814.98	203.39	-124.73	97.656	-1.1806	-338.61	1480.9	-44.084	-231.52	1034.7	-198.68	-132.21	550.24	102.32	-309.36	291.82	-148.76	-425.38	1042.7	-79.286	-308.56	512.67	-165.08	-380.26	66.896	-45.781	-396.52	1102.2	159.05	-291.95	576.59	-173.67	-250.91	1029.4	109.27	-429.69	1041.6	-10.853	-312.03	939.26	-155.92	-334.37	1037.1	-44.888	-241.22	1032	-44.706	-241.22	1032	-44.706	-325.22	935.64	53.485	-427.53	1042.2	-45.07	-161.49	1027.6	-39.762	-236.88	1111.9	-43.052	-246.24	1030.6	35.124	-467.09	34.497	-79.865	-362.55	1096.4	236.65	-133.49	1652.8	-83.332	-146.9	594.34	105.66	-262.85	791.87	231.44	-408.86	1224.1	-43.222	-306.24	1607.5	26.409	-249.36	29.059	-75.535	-150.04	509.75	-21.034	-141.13	529.99	40.643	-402.15	59.396	-128.68	-251.49	840.5	185.39	-159.32	93.003	75.969	-278.51	1251.7	197.56	-132.02	1652.3	-8.5145	-229.56	1427.5	112.48	-330.47	493.44	-38.374	-319.52	503.06	-101.73	-286.13	668.89	-194.36	-222.41	766.31	135.9	-281.38	760.22	-212.47	-231.8	697.39	-234.24	-283.23	381.61	-78.493	-308.63	292.51	-76.563	-332.26	203.11	-76.339	-180.56	680.59	123.72	-84.105	412.24	25.722	-125.69	709.57	82.55
525	2.625	-198.89	36.148	-97.517	9	2014	4	-305.28	1611.5	-110.17	-136.32	827.69	-330.11	-265.82	1077.9	-333.73	16.225	67.926	39.267	-246.01	1419.8	-212.56	-26.86	57.778	108.6	59.027	85.197	82.27	-249.14	1216.7	-293.29	-100.51	316.59	97.306	-62.464	833.47	-315.61	-185.2	43.786	11.45	-215.89	945.81	-338.26	-93.643	227.36	24.415	-84.785	315.26	23.757	-337.47	935.41	237.06	-288.23	23.627	-156.11	-325.13	814.54	203.63	-108.62	96.579	-0.2022	-334.05	1480.4	-43.862	-226.5	1034.3	-199.15	-128.57	549.13	102.56	-308.31	291.45	-148.76	-420.78	1042.3	-78.857	-306.52	512.35	-165.11	-380.16	66.832	-45.705	-392.14	1101.9	159.23	-289.47	576.28	-173.75	-245.24	1028.6	108.56	-424.94	1041	-10.477	-306.88	938.93	-156.37	-329.36	1036.6	-44.981	-235.87	1031.5	-45.294	-235.87	1031.5	-45.294	-319.62	935.06	52.866	-422.86	1041.7	-44.667	-156.14	1027	-40.52	-231.51	1111.3	-43.552	-240.73	1030	34.544	-467.08	34.532	-79.788	-358.12	1096	236.8	-128.9	1652.4	-83.148	-143.16	593.26	105.84	-259.15	791.28	231.59	-403.95	1223.5	-42.922	-301.64	1607.1	26.615	-249.34	29.077	-75.481	-146.13	508.14	-20.804	-137.35	528.63	40.876	-402.09	59.433	-128.62	-247.69	839.86	185.5	-143.08	90.84	76.83	-273.93	1251.2	197.7	-127.42	1651.8	-8.3304	-224.9	1427.1	112.63	-328.59	493.26	-38.421	-317.55	502.8	-101.77	-283.15	668.57	-194.38	-217.96	765.53	136.1	-277.87	759.9	-212.47	-228.93	696.81	-234.63	-281.77	381.13	-78.544	-307.53	292.14	-76.571	-331.55	202.84	-76.308	-176.41	679.66	123.94	-77.315	412.25	26.161	-121.66	708.38	82.421
526	2.63	-198.81	36.014	-97.576	9	2014	4	-300.69	1611.1	-109.95	-128.18	828.4	-329.65	-259.6	1077.6	-333.9	32.965	69.71	39.841	-241.53	1419.4	-212.36	-9.6538	58.456	109.28	75.614	87.641	82.714	-243.75	1216.5	-293.24	-91.048	316.2	97.951	-54.434	834.74	-314.89	-168.04	41.206	12.605	-208.61	945.87	-338.23	-81.445	226.95	25.303	-75.234	315.11	24.426	-333.35	935	237.26	-288.18	23.577	-156.17	-321.35	814.08	203.88	-92.679	95.742	0.81966	-329.48	1479.9	-43.626	-221.42	1033.9	-199.65	-125.05	547.91	102.8	-307.26	291.07	-148.74	-416.16	1041.8	-78.399	-304.47	512.02	-165.13	-380.05	66.773	-45.628	-387.72	1101.5	159.42	-286.98	575.96	-173.82	-239.45	1027.9	107.82	-420.17	1040.4	-10.073	-301.64	938.57	-156.84	-324.3	1036	-45.074	-230.44	1030.9	-45.912	-230.44	1030.9	-45.912	-313.9	934.47	52.242	-418.16	1041.1	-44.236	-150.69	1026.4	-41.326	-226.07	1110.8	-44.089	-235.11	1029.3	33.936	-467.06	34.574	-79.708	-353.65	1095.7	236.96	-124.29	1652	-82.941	-139.54	592.06	106.02	-255.41	790.68	231.76	-399	1222.8	-42.581	-297.03	1606.7	26.84	-249.32	29.092	-75.429	-142.32	506.47	-20.578	-133.68	527.19	41.113	-402.02	59.476	-128.55	-243.85	839.2	185.64	-126.98	88.932	77.733	-269.31	1250.8	197.85	-122.8	1651.3	-8.1235	-220.21	1426.6	112.8	-326.69	493.08	-38.454	-315.58	502.55	-101.79	-280.16	668.25	-194.38	-213.61	764.66	136.3	-274.36	759.55	-212.44	-226	696.21	-234.94	-280.29	380.64	-78.584	-306.44	291.77	-76.566	-330.86	202.56	-76.267	-172.37	678.62	124.16	-70.682	412.26	26.602	-117.7	707.07	82.351
527	2.635	-198.73	35.882	-97.636	9	2014	4	-296.08	1610.7	-109.71	-120.11	829.08	-329.17	-253.4	1077.3	-334.05	49.441	71.679	40.363	-237.02	1419	-212.14	7.3523	59.364	109.95	91.925	90.295	83.074	-238.35	1216.2	-293.17	-81.732	315.89	98.606	-46.484	835.98	-314.14	-151.06	38.915	13.826	-201.39	945.92	-338.17	-69.429	226.69	26.206	-65.846	315.03	25.103	-329.19	934.58	237.48	-288.14	23.53	-156.24	-317.52	813.59	204.14	-76.95	95.145	1.8745	-324.89	1479.5	-43.375	-216.32	1033.5	-200.16	-121.66	546.6	103.06	-306.21	290.69	-148.71	-411.53	1041.3	-77.914	-302.41	511.69	-165.14	-379.94	66.718	-45.549	-383.25	1101.2	159.62	-284.48	575.63	-173.88	-233.54	1027.2	107.07	-415.36	1039.8	-9.6405	-296.35	938.2	-157.29	-319.19	1035.4	-45.161	-224.93	1030.3	-46.544	-224.93	1030.3	-46.544	-308.06	933.87	51.631	-413.45	1040.5	-43.777	-145.18	1025.9	-42.166	-220.58	1110.2	-44.647	-229.41	1028.7	33.313	-467.04	34.621	-79.627	-349.13	1095.3	237.14	-119.67	1651.5	-82.713	-136.03	590.77	106.21	-251.62	790.06	231.95	-394.04	1222.2	-42.199	-292.4	1606.2	27.085	-249.31	29.105	-75.38	-138.56	504.75	-20.353	-130.11	525.68	41.355	-401.95	59.525	-128.49	-239.95	838.52	185.79	-111.02	87.293	78.679	-264.65	1250.3	198.03	-118.17	1650.8	-7.894	-215.5	1426.2	112.98	-324.78	492.89	-38.473	-313.59	502.29	-101.8	-277.16	667.91	-194.36	-209.35	763.69	136.5	-270.83	759.19	-212.4	-223.01	695.59	-235.16	-278.81	380.15	-78.612	-305.36	291.39	-76.55	-330.16	202.29	-76.216	-168.46	677.48	124.37	-64.202	412.26	27.039	-113.81	705.66	82.344
528	2.64	-198.64	35.751	-97.697	9	2014	4	-291.46	1610.2	-109.45	-112.12	829.74	-328.66	-247.22	1077	-334.18	65.609	73.824	40.827	-232.49	1418.6	-211.9	24.11	60.495	110.58	107.92	93.148	83.342	-232.92	1215.9	-293.06	-72.571	315.67	99.266	-38.617	837.18	-313.34	-134.32	36.904	15.103	-194.22	945.95	-338.08	-57.619	226.57	27.116	-56.633	315.02	25.781	-324.98	934.13	237.71	-288.11	23.484	-156.31	-313.64	813.09	204.41	-61.476	94.779	2.9497	-320.28	1478.9	-43.108	-211.22	1033.1	-200.67	-118.36	545.21	103.33	-305.15	290.3	-148.66	-406.89	1040.7	-77.405	-300.33	511.35	-165.12	-379.83	66.667	-45.47	-378.73	1100.8	159.84	-281.97	575.3	-173.92	-227.56	1026.4	106.33	-410.53	1039.2	-9.1821	-291.03	937.8	-157.71	-314.05	1034.9	-45.233	-219.39	1029.8	-47.173	-219.39	1029.8	-47.173	-302.15	933.26	51.051	-408.71	1039.9	-43.293	-139.62	1025.3	-43.023	-215.06	1109.6	-45.207	-223.64	1028	32.695	-467.02	34.676	-79.543	-344.56	1094.8	237.33	-115.03	1651	-82.464	-132.61	589.38	106.41	-247.79	789.41	232.15	-389.07	1221.5	-41.778	-287.75	1605.7	27.35	-249.29	29.117	-75.333	-134.87	502.99	-20.127	-126.61	524.1	41.604	-401.89	59.578	-128.42	-236	837.82	185.95	-95.269	85.927	79.666	-259.95	1249.8	198.22	-113.52	1650.3	-7.6421	-210.75	1425.7	113.18	-322.85	492.7	-38.475	-311.59	502.03	-101.8	-274.14	667.56	-194.33	-205.17	762.63	136.69	-267.28	758.81	-212.35	-219.95	694.98	-235.31	-277.32	379.66	-78.626	-304.29	291.01	-76.522	-329.47	202.01	-76.158	-164.64	676.24	124.57	-57.867	412.25	27.47	-109.97	704.17	82.399
